<svg height="50px" viewBox="0 0 128 128" width="50px" xmlns="http://www.w3.org/2000/svg">
    <g>
        <g fill="#596c76">
            <path d="m111.4 66.954a3.385 3.385 0 0 1 -1.355-.289 32.946 32.946 0 0 1 -1.345 5.406 10.96 10.96 0 0 1 -3.66 4.685l.491 4.287a3.451 3.451 0 0 0 .385 1.167 3.709 3.709 0 0 0 1.376 1.35 5.261 5.261 0 0 0 2.217.641c.46.056.92.093 1.388.138a47.015 47.015 0 0 1 7.103.831c.035.01.069.023.1.033a9.318 9.318 0 0 0 -1.244-9.595 9.319 9.319 0 0 1 -2.045-5.826v-6.235a3.407 3.407 0 0 1 -3.411 3.407z"/>
            <path d="m72.484 24.3h-16.969a12.744 12.744 0 0 0 -12.326 12.733v15.488a4.342 4.342 0 0 1 4.342-4.342c.2 0 2.95.018 3.143.044v-4.423h8.808a29.356 29.356 0 0 0 14.531-3.848c.238 2.189 3.47 3.848 3.47 3.848v4.416c.143-.015 2.838-.032 2.985-.032a4.342 4.342 0 0 1 4.342 4.342v-15.493a12.744 12.744 0 0 0 -12.326-12.733z"/>
            <path d="m105.138 41.407h-13.313a9.982 9.982 0 0 0 -7.014 3.217v7.9a4.324 4.324 0 0 0 -2.285-3.8 4.326 4.326 0 0 1 -.372 7.805v7.023a3.407 3.407 0 0 1 3.407-3.407c.158 0 2.314.014 2.466.035v-3.48h6.91a23.043 23.043 0 0 0 11.4-3.019c.186 1.717 2.722 3.019 2.722 3.019v3.465c.112-.013 2.226-.026 2.342-.026a3.407 3.407 0 0 1 3.407 3.407v-12.146a10 10 0 0 0 -9.67-9.993z"/>
            <path d="m82.154 63.547v6.235a9.319 9.319 0 0 1 -2.045 5.826 9.259 9.259 0 0 0 -1.679 3.276c.464.05.927.094 1.4.138 3.028.3 6.088.3 9.042 1.06a14.27 14.27 0 0 1 2.554.981l.005-.02.5-4.372a10.955 10.955 0 0 1 -3.544-4.6 33.6 33.6 0 0 1 -1.355-5.454 3.4 3.4 0 0 1 -4.876-3.071z"/>
            <path d="m16.6 66.954a3.385 3.385 0 0 0 1.355-.289 32.946 32.946 0 0 0 1.345 5.406 10.96 10.96 0 0 0 3.66 4.685l-.491 4.287a3.451 3.451 0 0 1 -.385 1.167 3.7 3.7 0 0 1 -1.384 1.35 5.253 5.253 0 0 1 -2.216.641c-.46.056-.92.093-1.389.138a47.017 47.017 0 0 0 -7.094.831c-.035.01-.069.023-.1.033a9.318 9.318 0 0 1 1.244-9.595 9.319 9.319 0 0 0 2.045-5.826v-6.235a3.407 3.407 0 0 0 3.41 3.407z"/>
            <path d="m22.861 41.407h13.314a9.982 9.982 0 0 1 7.014 3.217v7.9a4.324 4.324 0 0 1 2.285-3.8 4.326 4.326 0 0 0 .372 7.805v7.023a3.407 3.407 0 0 0 -3.407-3.407c-.158 0-2.314.014-2.466.035v-3.48h-6.91a23.043 23.043 0 0 1 -11.4-3.019c-.189 1.719-2.724 3.019-2.724 3.019v3.465c-.112-.013-2.226-.026-2.342-.026a3.407 3.407 0 0 0 -3.407 3.407v-12.146a10 10 0 0 1 9.671-9.993z"/>
            <path d="m45.846 63.547v6.235a9.319 9.319 0 0 0 2.045 5.826 9.259 9.259 0 0 1 1.679 3.276c-.464.05-.927.094-1.4.138-3.028.3-6.088.3-9.042 1.06a14.241 14.241 0 0 0 -2.554.981l-.005-.02-.5-4.372a10.955 10.955 0 0 0 3.544-4.6 33.6 33.6 0 0 0 1.355-5.454 3.4 3.4 0 0 0 4.876-3.071z"/>
        </g>
        <path d="m111.4 60.14c-.116 0-2.23.013-2.342.026v-3.466s-2.536-1.3-2.722-3.02a23.033 23.033 0 0 1 -11.4 3.02h-6.91v3.474c-.152-.021-2.308-.035-2.466-.035a3.407 3.407 0 1 0 1.469 6.478 33.6 33.6 0 0 0 1.355 5.454 10.973 10.973 0 0 0 20.317 0 32.946 32.946 0 0 0 1.345-5.406 3.4 3.4 0 1 0 1.354-6.525z"
              fill="#ffcebf"/>
        <path d="m80.469 48.179c-.147 0-2.842.017-2.985.032v-4.411s-3.232-1.659-3.47-3.848a29.356 29.356 0 0 1 -14.531 3.848h-8.808v4.428c-.193-.026-2.942-.044-3.143-.044a4.343 4.343 0 1 0 1.868 8.251 42.718 42.718 0 0 0 1.728 6.952 13.984 13.984 0 0 0 25.9 0 41.9 41.9 0 0 0 1.714-6.887 4.291 4.291 0 0 0 1.727.369 4.343 4.343 0 0 0 0-8.685z"
              fill="#ffcebf"/>
        <path d="m64 84a13.239 13.239 0 0 0 11.234-5.97 4.72 4.72 0 0 1 -1.755-1.721 4.369 4.369 0 0 1 -.49-1.488l-.626-5.464a13.94 13.94 0 0 1 -16.714-.108l-.638 5.572a4.068 4.068 0 0 1 -2.263 3.179 13.236 13.236 0 0 0 11.252 6z"
              fill="#ffa78f"/>
        <path d="m88.871 80.082c-2.954-.76-6.014-.756-9.042-1.06-.6-.056-1.184-.1-1.77-.175a6.7 6.7 0 0 1 -2.825-.817 13.55 13.55 0 0 1 -22.486-.03 9.956 9.956 0 0 1 -4.7 1.007 47.411 47.411 0 0 0 -8.914 1.073 14.3 14.3 0 0 0 -10.527 13.787v9.833h70.786v-9.833a14.3 14.3 0 0 0 -10.522-13.785z"
              fill="#ade6ea"/>
        <path d="m105.919 82.21a3.429 3.429 0 0 1 -.385-1.167l-.491-4.287a10.941 10.941 0 0 1 -13.113-.085l-.5 4.372-.005.02a14.327 14.327 0 0 1 6.806 7.168c.085 0 .166.016.251.016a10.384 10.384 0 0 0 8.818-4.687 3.709 3.709 0 0 1 -1.381-1.35z"
              fill="#ffa78f"/>
        <path d="m118 85.17a47.015 47.015 0 0 0 -7.095-.831c-.468-.045-.928-.082-1.388-.138a5.261 5.261 0 0 1 -2.217-.641 10.384 10.384 0 0 1 -8.813 4.687c-.085 0-.166-.014-.251-.016a14.228 14.228 0 0 1 1.162 5.636v9.833h26.852v-7.715a11.218 11.218 0 0 0 -8.25-10.815z"
              fill="#ffe274"/>
        <path d="m16.6 60.14c.116 0 2.23.013 2.342.026v-3.466s2.536-1.3 2.722-3.02a23.033 23.033 0 0 0 11.4 3.02h6.91v3.474c.152-.021 2.308-.035 2.466-.035a3.407 3.407 0 1 1 -1.469 6.478 33.6 33.6 0 0 1 -1.355 5.454 10.973 10.973 0 0 1 -20.317 0 32.946 32.946 0 0 1 -1.345-5.406 3.4 3.4 0 1 1 -1.354-6.525z"
              fill="#ffcebf"/>
        <path d="m22.081 82.21a3.451 3.451 0 0 0 .385-1.167l.491-4.287a10.941 10.941 0 0 0 13.113-.085l.5 4.372.005.02a14.333 14.333 0 0 0 -6.807 7.168c-.084 0-.165.016-.25.016a10.387 10.387 0 0 1 -8.818-4.687 3.7 3.7 0 0 0 1.381-1.35z"
              fill="#ffa78f"/>
        <path d="m10.005 85.17a47.017 47.017 0 0 1 7.094-.831c.469-.045.929-.082 1.389-.138a5.253 5.253 0 0 0 2.212-.641 10.387 10.387 0 0 0 8.814 4.687c.085 0 .166-.014.25-.016a14.228 14.228 0 0 0 -1.161 5.636v9.833h-26.853v-7.715a11.218 11.218 0 0 1 8.255-10.815z"
              fill="#ffe274"/>
    </g>
</svg>