<svg height="50px" viewBox="-23 0 512 512.00003" width="50px" xmlns="http://www.w3.org/2000/svg">
    <path d="m356.851562 402.378906c.410157-12.632812-9.808593-23.125-22.378906-23.125h-.046875v-.007812h1.871094c12.203125-.011719 22.085937-9.914063 22.078125-22.117188s-9.910156-22.023437-22.113281-22.015625c-10.175781 0-81.125 0-91.9375 0-2.5625 0-4.378907-2.503906-3.582031-4.9375l8.058593-24.597656c6.859375-20.933594 5.640625-35.1875 5.640625-59.707031 0-14.421875-11.691406-26.109375-26.113281-26.109375-13.101563 0-24.175781 9.703125-25.890625 22.691406-1.894531 14.371094-3.175781 39.925781-26.929688 62.800781l-16.769531 16.140625c-9.339843 8.996094-21.800781 14.019531-34.765625 14.019531h-22.027344v144.945313c5.992188-.003906 18.03125-.003906 18.039063-.003906 32.011719-.019531 29.085937 31.679687 68.898437 31.644531h135.496094c12.1875 0 22.066406-9.882812 22.066406-22.070312 0-12.191407-9.878906-22.070313-22.066406-22.070313h3.886719c11.992187 0 22.234375-9.328125 22.632813-21.316406.417968-12.53125-9.617188-22.824219-22.054688-22.824219h5.367188c12.003906 0 22.253906-9.339844 22.640624-21.339844zm0 0"
          fill="#ffcdbf"/>
    <path d="m324.378906 486.242188h-135.496094c-39.8125.039062-36.886718-31.664063-68.898437-31.644532-.007813 0-12.046875.003906-18.035156.007813v25.753906c5.988281-.003906 18.027343-.003906 18.035156-.003906 32.011719-.019531 29.085937 31.679687 68.898437 31.644531h135.496094c12.1875 0 22.066406-9.882812 22.066406-22.070312 0-4.8125-1.554687-9.253907-4.171874-12.878907-4.003907 5.558594-10.519532 9.191407-17.894532 9.191407zm0 0"
          fill="#ffbeab"/>
    <path d="m95.679688 322.390625h-83.589844c-6.304688 0-11.417969 5.113281-11.417969 11.417969v150.992187c0 6.308594 5.109375 11.421875 11.417969 11.421875h83.589844c6.304687 0 11.417968-5.113281 11.417968-11.421875v-150.992187c0-6.304688-5.113281-11.417969-11.417968-11.417969zm0 0"
          fill="#54a0ff"/>
    <path d="m31.578125 484.804688v-150.996094c0-6.304688 5.113281-11.417969 11.421875-11.417969h-30.910156c-6.304688 0-11.417969 5.113281-11.417969 11.417969v150.992187c0 6.308594 5.109375 11.421875 11.417969 11.421875h30.90625c-6.304688 0-11.417969-5.113281-11.417969-11.417968zm0 0"
          fill="#338def"/>
    <path d="m121.082031 119.558594c3.117188-2.980469 1.398438-8.164063-2.910156-8.78125l-33.285156-4.734375c-1.710938-.246094-3.1875-1.296875-3.953125-2.816407l-14.886719-29.542968c-1.925781-3.824219-7.492187-3.824219-9.421875 0l-14.882812 29.542968c-.765626 1.519532-2.246094 2.574219-3.957032 2.816407l-33.28125 4.734375c-4.308594.613281-6.03125 5.800781-2.910156 8.78125l24.082031 22.996094c1.238281 1.179687 1.800781 2.882812 1.511719 4.554687l-5.6875 32.46875c-.734375 4.203125 3.769531 7.410156 7.625 5.425781l29.769531-15.332031c1.527344-.785156 3.359375-.785156 4.886719 0l29.769531 15.332031c3.855469 1.984375 8.359375-1.222656 7.625-5.425781l-5.6875-32.46875c-.292969-1.671875.273438-3.375 1.511719-4.554687zm0 0"
          fill="#feca57"/>
    <path d="m63.53125 141.164062c.292969-1.667968-.269531-3.371093-1.507812-4.554687l-24.085938-22.996094c-2.386719-2.277343-1.929688-5.847656.347656-7.671875-.164062.039063-.328125.074219-.5.097656l-33.28125 4.738282c-4.308594.613281-6.027344 5.800781-2.910156 8.777344l24.082031 22.996093c1.238281 1.183594 1.804688 2.886719 1.511719 4.554688l-5.683594 32.472656c-.738281 4.203125 3.765625 7.410156 7.621094 5.425781l29.382812-15.132812zm0 0"
          fill="#f4b537"/>
    <path d="m40.851562 104.835938 33.28125-4.738282c1.65625-.234375 3.089844-1.234375 3.875-2.675781l-11.957031-23.738281c-1.929687-3.824219-7.496093-3.824219-9.421875 0l-14.886718 29.542968c-.34375.679688-.835938 1.261719-1.421876 1.722657.171876-.042969.347657-.085938.53125-.113281zm0 0"
          fill="#f4b537"/>
    <path d="m463.882812 119.558594c3.117188-2.980469 1.394532-8.164063-2.914062-8.78125l-33.28125-4.734375c-1.710938-.246094-3.191406-1.296875-3.957031-2.816407l-14.882813-29.542968c-1.925781-3.824219-7.496094-3.824219-9.421875 0l-14.886719 29.542968c-.765624 1.519532-2.242187 2.574219-3.953124 2.816407l-33.28125 4.734375c-4.3125.613281-6.03125 5.800781-2.914063 8.78125l24.082031 22.996094c1.238282 1.179687 1.804688 2.882812 1.511719 4.554687l-5.683594 32.46875c-.738281 4.203125 3.769531 7.410156 7.621094 5.425781l29.769531-15.332031c1.53125-.785156 3.359375-.785156 4.890625 0l29.765625 15.332031c3.855469 1.984375 8.359375-1.222656 7.625-5.425781l-5.6875-32.46875c-.292968-1.671875.273438-3.375 1.511719-4.554687zm0 0"
          fill="#feca57"/>
    <path d="m406.332031 141.164062c.292969-1.667968-.273437-3.371093-1.511719-4.554687l-24.082031-22.996094c-2.386719-2.277343-1.929687-5.847656.34375-7.671875-.164062.039063-.328125.074219-.496093.097656l-33.28125 4.738282c-4.308594.613281-6.03125 5.800781-2.914063 8.777344l24.085937 22.996093c1.238282 1.183594 1.800782 2.886719 1.507813 4.554688l-5.683594 32.472656c-.734375 4.203125 3.769531 7.410156 7.625 5.425781l29.382813-15.132812zm0 0"
          fill="#f4b537"/>
    <path d="m383.648438 104.835938 33.28125-4.738282c1.660156-.234375 3.09375-1.234375 3.875-2.675781l-11.957032-23.738281c-1.925781-3.824219-7.496094-3.824219-9.421875 0l-14.882812 29.542968c-.34375.679688-.835938 1.261719-1.425781 1.722657.175781-.042969.347656-.085938.53125-.113281zm0 0"
          fill="#f4b537"/>
    <path d="m329.339844 78.8125c5.042968-4.816406 2.257812-13.203125-4.707032-14.195312l-53.816406-7.660157c-2.765625-.394531-5.160156-2.09375-6.394531-4.550781l-24.066406-47.769531c-3.117188-6.183594-12.121094-6.183594-15.234375 0l-24.066406 47.769531c-1.238282 2.457031-3.628907 4.15625-6.398438 4.550781l-53.8125 7.660157c-6.96875.992187-9.75 9.378906-4.710938 14.195312l38.941407 37.179688c2.003906 1.914062 2.917969 4.667968 2.445312 7.367187l-9.195312 52.5c-1.1875 6.796875 6.097656 11.980469 12.328125 8.773437l48.132812-24.789062c2.476563-1.273438 5.429688-1.273438 7.90625 0l48.132813 24.789062c6.230469 3.207032 13.515625-1.976562 12.324219-8.773437l-9.191407-52.5c-.472656-2.699219.441407-5.453125 2.441407-7.367187zm0 0"
          fill="#feca57"/>
    <path d="m231.003906 51.015625c2.765625-.394531 5.15625-2.097656 6.394532-4.550781l12.015624-23.847656-9.058593-17.980469c-3.117188-6.183594-12.121094-6.183594-15.234375 0l-24.066406 47.769531c-.695313 1.371094-1.753907 2.5-3.03125 3.304688zm0 0"
          fill="#f4b537"/>
    <path d="m204.671875 169.917969 9.191406-52.503907c.472657-2.699218-.441406-5.453124-2.441406-7.363281l-38.941406-37.183593c-4.101563-3.914063-3.023438-10.191407 1.265625-12.933594l-32.902344 4.683594c-6.96875.992187-9.75 9.378906-4.710938 14.195312l38.941407 37.179688c2.003906 1.914062 2.917969 4.667968 2.445312 7.367187l-9.195312 52.5c-1.1875 6.796875 6.09375 11.980469 12.328125 8.773437l23.949218-12.335937c-.089843-.761719-.074218-1.558594.070313-2.378906zm0 0"
          fill="#f4b537"/>
    <g fill="#ffbeab">
        <path d="m289.019531 413.414062c0 5.691407 4.613281 10.304688 10.300781 10.304688h34.890626c11.757812 0 21.804687-8.964844 22.582031-20.605469h-57.46875c-5.691407 0-10.304688 4.613281-10.304688 10.300781zm0 0"/>
        <path d="m289.019531 368.941406c0 5.691406 4.613281 10.304688 10.300781 10.304688h36.972657c11.695312-.011719 21.234375-9.109375 22.007812-20.605469h-58.980469c-5.6875 0-10.300781 4.613281-10.300781 10.300781zm0 0"/>
        <path d="m350.839844 447.253906h-51.519532c-5.6875 0-10.300781 4.613282-10.300781 10.300782 0 5.691406 4.613281 10.304687 10.300781 10.304687h28.945313c11.753906 0 21.796875-8.964844 22.574219-20.605469zm0 0"/>
    </g>
</svg>